<?xml version="1.0" standalone="no"?><!DOCTYPE svg PUBLIC "-//W3C//DTD SVG 1.1//EN" "http://www.w3.org/Graphics/SVG/1.1/DTD/svg11.dtd"><svg t="1590911627331" class="icon" viewBox="0 0 1024 1024" version="1.1" xmlns="http://www.w3.org/2000/svg" p-id="3069" xmlns:xlink="http://www.w3.org/1999/xlink" width="200" height="200"><defs><style type="text/css"></style></defs><path d="M170.666667 298.666667h-14.222223c-66.659556 0-120.888889-54.229333-120.888888-120.888889S89.784889 56.888889 156.444444 56.888889h14.222223c66.659556 0 120.888889 54.229333 120.888889 120.888889S237.326222 298.666667 170.666667 298.666667zM156.444444 113.777778c-35.285333 0-64 28.714667-64 64S121.159111 241.777778 156.444444 241.777778h14.222223c35.285333 0 64-28.714667 64-64S205.952 113.777778 170.666667 113.777778h-14.222223zM170.666667 967.111111h-14.222223c-66.659556 0-120.888889-54.229333-120.888888-120.888889S89.784889 725.333333 156.444444 725.333333h14.222223c66.659556 0 120.888889 54.229333 120.888889 120.888889S237.326222 967.111111 170.666667 967.111111z m-14.222223-184.888889c-35.285333 0-64 28.714667-64 64S121.159111 910.222222 156.444444 910.222222h14.222223c35.285333 0 64-28.714667 64-64S205.952 782.222222 170.666667 782.222222h-14.222223zM170.666667 640h-14.222223c-66.659556 0-120.888889-54.229333-120.888888-120.888889S89.784889 398.222222 156.444444 398.222222h14.222223c66.659556 0 120.888889 54.229333 120.888889 120.888889S237.326222 640 170.666667 640z m-14.222223-184.888889c-35.285333 0-64 28.714667-64 64S121.159111 583.111111 156.444444 583.111111h14.222223c35.285333 0 64-28.714667 64-64S205.952 455.111111 170.666667 455.111111h-14.222223z" p-id="3070" fill="#1296db"></path><path d="M512 298.666667h-14.222222c-66.659556 0-120.888889-54.229333-120.888889-120.888889S431.118222 56.888889 497.777778 56.888889h14.222222c66.659556 0 120.888889 54.229333 120.888889 120.888889S578.659556 298.666667 512 298.666667zM497.777778 113.777778c-35.285333 0-64 28.714667-64 64S462.492444 241.777778 497.777778 241.777778h14.222222c35.285333 0 64-28.714667 64-64S547.285333 113.777778 512 113.777778h-14.222222zM512 967.111111h-14.222222c-66.659556 0-120.888889-54.229333-120.888889-120.888889S431.118222 725.333333 497.777778 725.333333h14.222222c66.659556 0 120.888889 54.229333 120.888889 120.888889S578.659556 967.111111 512 967.111111z m-14.222222-184.888889c-35.285333 0-64 28.714667-64 64S462.492444 910.222222 497.777778 910.222222h14.222222c35.285333 0 64-28.714667 64-64S547.285333 782.222222 512 782.222222h-14.222222zM512 640h-14.222222c-66.659556 0-120.888889-54.229333-120.888889-120.888889S431.118222 398.222222 497.777778 398.222222h14.222222c66.659556 0 120.888889 54.229333 120.888889 120.888889S578.659556 640 512 640z m-14.222222-184.888889c-35.285333 0-64 28.714667-64 64S462.492444 583.111111 497.777778 583.111111h14.222222c35.285333 0 64-28.714667 64-64S547.285333 455.111111 512 455.111111h-14.222222z" p-id="3071" fill="#1296db"></path><path d="M867.555556 298.666667h-14.222223c-66.659556 0-120.888889-54.229333-120.888889-120.888889S786.673778 56.888889 853.333333 56.888889h14.222223c66.659556 0 120.888889 54.229333 120.888888 120.888889S934.215111 298.666667 867.555556 298.666667zM853.333333 113.777778c-35.285333 0-64 28.714667-64 64S818.048 241.777778 853.333333 241.777778h14.222223c35.285333 0 64-28.714667 64-64S902.840889 113.777778 867.555556 113.777778h-14.222223zM867.555556 967.111111h-14.222223c-66.659556 0-120.888889-54.229333-120.888889-120.888889S786.673778 725.333333 853.333333 725.333333h14.222223c66.659556 0 120.888889 54.229333 120.888888 120.888889S934.215111 967.111111 867.555556 967.111111z m-14.222223-184.888889c-35.285333 0-64 28.714667-64 64S818.048 910.222222 853.333333 910.222222h14.222223c35.285333 0 64-28.714667 64-64S902.840889 782.222222 867.555556 782.222222h-14.222223zM867.555556 640h-14.222223c-66.659556 0-120.888889-54.229333-120.888889-120.888889S786.673778 398.222222 853.333333 398.222222h14.222223c66.659556 0 120.888889 54.229333 120.888888 120.888889S934.215111 640 867.555556 640z m-14.222223-184.888889c-35.285333 0-64 28.714667-64 64S818.048 583.111111 853.333333 583.111111h14.222223c35.285333 0 64-28.714667 64-64S902.840889 455.111111 867.555556 455.111111h-14.222223z" p-id="3072" fill="#1296db"></path></svg>